# xmcd
#
# Track frame offsets:
#	150
#	15290
#	30141
#	45588
#	64100
#	80011
#	92135
#	99459
#	117747
#	133271
#
# Disc length: 1982 seconds
#
# Revision: 0
# Processed by: cddbd v1.5.2PL0 Copyright (c) Steve Scherf et al.
# Submitted via: dBpowerAMP V4.0
#
DISCID=7a07bc0a
DTITLE=Jerry Faires - Dogs Bark... The Caravan Moves On
DYEAR=1993
DGENRE=Country
TTITLE0=Maddox Brothers and Rose
TTITLE1=Lone Star Christmas
TTITLE2=The D-18 Song
TTITLE3=Waltz Without End
TTITLE4=Charlie's Song
TTITLE5=Longin' Looks, Lovin Lies
TTITLE6=Made a Fool Of
TTITLE7=Woman Song
TTITLE8=Texas Honkytonk
TTITLE9=Dogs Bark... The Caravan Moves On
EXTD=
EXTT0=
EXTT1=
EXTT2=
EXTT3=
EXTT4=
EXTT5=
EXTT6=
EXTT7=
EXTT8=
EXTT9=
PLAYORDER=
